<?xml version="1.0" encoding="UTF-8" standalone="no"?>
<!DOCTYPE svg PUBLIC "-//W3C//DTD SVG 1.1//EN" "http://www.w3.org/Graphics/SVG/1.1/DTD/svg11.dtd">
<svg width="100%" height="100%" viewBox="0 0 2000 2000" version="1.1" xmlns="http://www.w3.org/2000/svg" xmlns:xlink="http://www.w3.org/1999/xlink" xml:space="preserve" xmlns:serif="http://www.serif.com/" style="fill-rule:evenodd;clip-rule:evenodd;stroke-linejoin:round;stroke-miterlimit:2;">
    <g transform="matrix(1,0,0,1,-265.5,-589)">
        <g transform="matrix(1200,0,0,1200,279.732,1917.73)">
            <path d="M0.422,-0.082C0.431,-0.069 0.435,-0.055 0.435,-0.04C0.435,-0.026 0.432,-0.013 0.424,-0.003C0.417,0.008 0.407,0.016 0.394,0.021C0.381,0.026 0.366,0.027 0.349,0.022C0.336,0.018 0.324,0.012 0.313,0.003C0.302,-0.006 0.291,-0.014 0.28,-0.022C0.254,-0.041 0.228,-0.06 0.203,-0.08C0.178,-0.099 0.153,-0.118 0.127,-0.137C0.12,-0.143 0.111,-0.149 0.1,-0.156C0.089,-0.162 0.079,-0.17 0.07,-0.178C0.06,-0.187 0.052,-0.196 0.046,-0.207C0.041,-0.217 0.038,-0.228 0.04,-0.241C0.043,-0.26 0.051,-0.275 0.064,-0.286C0.076,-0.296 0.09,-0.307 0.105,-0.318C0.13,-0.337 0.155,-0.357 0.18,-0.377C0.204,-0.397 0.229,-0.417 0.254,-0.436C0.269,-0.448 0.284,-0.461 0.299,-0.475C0.314,-0.489 0.331,-0.499 0.35,-0.504C0.366,-0.508 0.379,-0.507 0.391,-0.502C0.403,-0.497 0.412,-0.489 0.419,-0.478C0.425,-0.468 0.429,-0.456 0.43,-0.443C0.431,-0.43 0.429,-0.417 0.422,-0.404C0.418,-0.397 0.413,-0.39 0.406,-0.383C0.399,-0.376 0.391,-0.369 0.383,-0.363C0.374,-0.357 0.366,-0.351 0.359,-0.346C0.351,-0.341 0.344,-0.336 0.339,-0.333C0.319,-0.316 0.298,-0.301 0.278,-0.285C0.258,-0.27 0.238,-0.254 0.218,-0.238C0.252,-0.214 0.286,-0.189 0.319,-0.164C0.352,-0.138 0.385,-0.112 0.418,-0.087L0.422,-0.082Z" style="fill-rule:nonzero;"/>
        </g>
    </g>
    <g transform="matrix(1,0,0,1,366.5,-449.5)">
        <g transform="matrix(1200,0,0,1200,276.13,1881.23)">
            <path d="M0.404,-0.768C0.413,-0.783 0.424,-0.793 0.438,-0.798C0.451,-0.803 0.464,-0.804 0.477,-0.802C0.491,-0.799 0.502,-0.793 0.512,-0.782C0.522,-0.772 0.528,-0.758 0.529,-0.741C0.53,-0.733 0.529,-0.722 0.525,-0.711C0.521,-0.7 0.517,-0.688 0.512,-0.677C0.507,-0.665 0.502,-0.655 0.497,-0.645C0.492,-0.636 0.489,-0.629 0.487,-0.625C0.476,-0.6 0.465,-0.574 0.454,-0.549C0.443,-0.523 0.432,-0.498 0.421,-0.472C0.382,-0.381 0.343,-0.291 0.304,-0.202C0.266,-0.112 0.227,-0.023 0.187,0.066C0.181,0.08 0.171,0.089 0.159,0.094C0.146,0.1 0.132,0.101 0.119,0.098C0.105,0.095 0.093,0.089 0.082,0.079C0.072,0.069 0.066,0.055 0.064,0.038C0.063,0.018 0.066,-0 0.075,-0.017C0.083,-0.033 0.091,-0.05 0.099,-0.07C0.11,-0.095 0.122,-0.121 0.133,-0.146C0.144,-0.172 0.155,-0.197 0.166,-0.223C0.169,-0.23 0.173,-0.24 0.18,-0.254C0.186,-0.268 0.193,-0.284 0.2,-0.301C0.207,-0.317 0.215,-0.335 0.223,-0.353C0.23,-0.371 0.238,-0.387 0.244,-0.402C0.251,-0.417 0.256,-0.429 0.26,-0.439C0.264,-0.449 0.266,-0.454 0.266,-0.454C0.289,-0.506 0.312,-0.557 0.334,-0.608C0.356,-0.659 0.378,-0.71 0.4,-0.761L0.404,-0.768Z" style="fill-rule:nonzero;"/>
        </g>
    </g>
    <g transform="matrix(1,0,0,1,1028,-566.4)">
        <g transform="matrix(1200,0,0,1200,376.287,1917.73)">
            <path d="M0.074,-0.091C0.107,-0.115 0.14,-0.14 0.172,-0.165C0.204,-0.19 0.236,-0.214 0.27,-0.238C0.25,-0.254 0.23,-0.27 0.21,-0.285C0.19,-0.301 0.17,-0.316 0.149,-0.331C0.144,-0.335 0.138,-0.34 0.13,-0.345C0.122,-0.35 0.114,-0.356 0.106,-0.362C0.098,-0.368 0.09,-0.375 0.083,-0.381C0.076,-0.388 0.07,-0.395 0.066,-0.402C0.06,-0.415 0.057,-0.428 0.057,-0.441C0.058,-0.454 0.062,-0.466 0.068,-0.477C0.074,-0.487 0.083,-0.496 0.095,-0.501C0.107,-0.507 0.12,-0.508 0.136,-0.504C0.149,-0.501 0.162,-0.494 0.173,-0.485C0.185,-0.475 0.196,-0.466 0.207,-0.457C0.224,-0.444 0.241,-0.431 0.257,-0.418C0.274,-0.404 0.291,-0.391 0.308,-0.377L0.345,-0.348C0.349,-0.344 0.354,-0.34 0.36,-0.336C0.366,-0.331 0.375,-0.324 0.387,-0.315C0.401,-0.305 0.413,-0.294 0.425,-0.285C0.436,-0.275 0.444,-0.261 0.448,-0.243C0.45,-0.231 0.448,-0.219 0.442,-0.208C0.436,-0.198 0.429,-0.188 0.419,-0.18C0.41,-0.171 0.4,-0.164 0.389,-0.157C0.378,-0.15 0.369,-0.144 0.361,-0.138C0.336,-0.119 0.31,-0.1 0.285,-0.081C0.26,-0.062 0.235,-0.042 0.209,-0.023C0.198,-0.015 0.187,-0.006 0.176,0.003C0.165,0.012 0.152,0.018 0.139,0.022C0.121,0.027 0.105,0.027 0.092,0.022C0.078,0.017 0.069,0.009 0.062,-0.002C0.055,-0.013 0.052,-0.026 0.053,-0.041C0.054,-0.057 0.059,-0.071 0.069,-0.086L0.074,-0.091Z" style="fill-rule:nonzero;"/>
        </g>
    </g>
    <g transform="matrix(1,0,0,1,-504,-500)">
        <path d="M7,-1L3004,2996L14,3001L3001,7L1509.75,1501.75" style="fill:none;"/>
    </g>
</svg>
